<?xml version="1.0" encoding="UTF-8" standalone="no"?>
<svg
   width="16"
   height="16"
   viewBox="0 0 16 16"
   fill="none"
   version="1.1"
   id="svg2"
   sodipodi:docname="state_icon.svg"
   inkscape:version="1.4 (e7c3feb100, 2024-10-09)"
   xmlns:inkscape="http://www.inkscape.org/namespaces/inkscape"
   xmlns:sodipodi="http://sodipodi.sourceforge.net/DTD/sodipodi-0.dtd"
   xmlns="http://www.w3.org/2000/svg"
   xmlns:svg="http://www.w3.org/2000/svg">
  <sodipodi:namedview
     id="namedview2"
     pagecolor="#ffffff"
     bordercolor="#000000"
     borderopacity="0.25"
     inkscape:showpageshadow="2"
     inkscape:pageopacity="0.0"
     inkscape:pagecheckerboard="0"
     inkscape:deskcolor="#d1d1d1"
     inkscape:zoom="26.149741"
     inkscape:cx="9.8280131"
     inkscape:cy="10.535477"
     inkscape:window-width="1366"
     inkscape:window-height="768"
     inkscape:window-x="0"
     inkscape:window-y="0"
     inkscape:window-maximized="1"
     inkscape:current-layer="g4" />
  <g
     id="g4"
     transform="matrix(1.4003301,0,0,1.4003301,-3.1450226,-2.4870669)">
    <path
       id="path5"
       style="fill:#00abab;fill-opacity:1;stroke:#00abab;stroke-width:0.337971;stroke-linecap:square;stroke-linejoin:bevel;stroke-dasharray:none;stroke-opacity:1;paint-order:normal"
       d="M 8.6381022 2.5041225 C 8.4247596 2.5391746 7.6793954 2.5227538 7.3367907 2.5403863 C 7.3427965 2.7773296 7.290937 3.2165195 7.3158693 3.6269047 C 6.9535945 3.8317072 6.2053819 4.2493741 5.8499761 4.4484186 C 5.6788483 4.272084 5.2288861 3.8355959 4.9545399 3.4665072 C 4.8122012 3.5846666 4.2151111 4.1689516 3.8512844 4.5627889 C 4.219868 5.0209448 4.7859626 5.3315518 4.6602454 5.4359089 L 4.0772356 6.8585646 C 4.0759356 6.9401756 2.9571522 6.8522616 2.9558482 6.9338816 C 2.9421932 7.1280131 2.9425153 7.897769 3.0367443 8.4123277 C 3.6709593 8.4218077 3.7757527 8.4322316 4.1134994 8.4304596 C 4.3601952 8.899672 4.6074213 9.3685696 4.8541171 9.8377728 C 4.7609171 9.9917377 4.0568082 10.348989 3.9279962 10.518416 C 4.1629652 10.771963 4.8154817 11.564473 5.1302797 11.748595 C 5.4155722 11.372545 5.5711912 11.04829 5.8778713 10.770868 L 7.3507383 11.388746 C 7.3338043 11.782244 7.2205989 12.3497 7.2503156 12.539424 C 7.4703711 12.527764 8.3971933 12.637849 8.778973 12.596609 C 8.754472 12.220926 8.6905873 11.686519 8.6687869 11.341325 L 10.097022 10.797368 C 10.258187 10.937778 10.862627 11.564682 10.993853 11.691409 C 11.223707 11.466881 11.698022 11.015402 12.031554 10.643944 C 11.777273 10.387826 11.055111 9.9324231 11.12775 9.8726418 C 11.378725 9.3827021 11.596952 8.9429636 11.819551 8.4750919 C 12.008907 8.4877309 12.541767 8.4727371 13.009281 8.4736971 C 13.004581 8.1436 13.041114 7.3746063 13.051124 6.9004074 C 12.815209 6.9012523 12.103397 6.9061674 11.848841 6.9004074 L 11.164013 5.4108032 C 11.498739 5.2002063 11.916622 4.7760715 12.264479 4.509788 C 12.044635 4.183061 11.549384 3.9240451 11.175171 3.4344277 C 10.827773 3.7728906 10.517087 4.1532808 10.203023 4.4735242 C 9.9858407 4.3440054 9.4704629 4.1027433 8.6604183 3.7510383 C 8.6457464 3.4722474 8.6325464 2.8230713 8.6381022 2.5041225 z M 7.9295639 5.28388 A 2.3633766 2.3633766 0 0 1 10.345289 7.5754714 L 10.346684 7.6466042 A 2.3633766 2.3633766 0 0 1 8.0006967 10.009328 A 2.3633766 2.3633766 0 0 1 5.6198406 7.6814732 A 2.3633766 2.3633766 0 0 1 7.9295639 5.28388 z " />
    <path
       style="fill:#00abab;fill-opacity:1;stroke:#00abab;stroke-width:0.357059;stroke-linecap:square;stroke-linejoin:bevel;stroke-dasharray:none;stroke-opacity:1;paint-order:normal"
       id="path6"
       sodipodi:type="arc"
       sodipodi:cx="7.9807572"
       sodipodi:cy="7.6747527"
       sodipodi:rx="1.201586"
       sodipodi:ry="1.201586"
       sodipodi:start="0"
       sodipodi:end="6.2531884"
       sodipodi:open="true"
       sodipodi:arc-type="arc"
       d="M 9.1823432,7.6747527 A 1.201586,1.201586 0 0 1 7.9897681,8.8763049 1.201586,1.201586 0 0 1 6.7793064,7.692774 1.201586,1.201586 0 0 1 7.9537266,6.4734708 1.201586,1.201586 0 0 1 9.1818027,7.6387143" />
  </g>
  <defs
     id="defs2">
    <clipPath
       id="clip0_8_5">
      <rect
         width="16"
         height="16"
         fill="white"
         id="rect2" />
    </clipPath>
  </defs>
</svg>
