<?xml version="1.0" encoding="UTF-8" standalone="no"?>
<svg
   width="16"
   height="16"
   viewBox="0 0 16 16"
   fill="none"
   version="1.1"
   id="svg2"
   sodipodi:docname="state_machine_icon.svg"
   inkscape:version="1.4 (e7c3feb100, 2024-10-09)"
   xmlns:inkscape="http://www.inkscape.org/namespaces/inkscape"
   xmlns:sodipodi="http://sodipodi.sourceforge.net/DTD/sodipodi-0.dtd"
   xmlns="http://www.w3.org/2000/svg"
   xmlns:svg="http://www.w3.org/2000/svg">
  <sodipodi:namedview
     id="namedview2"
     pagecolor="#ffffff"
     bordercolor="#000000"
     borderopacity="0.25"
     inkscape:showpageshadow="2"
     inkscape:pageopacity="0.0"
     inkscape:pagecheckerboard="0"
     inkscape:deskcolor="#d1d1d1"
     inkscape:zoom="26.149741"
     inkscape:cx="9.8280131"
     inkscape:cy="7.8585864"
     inkscape:window-width="1366"
     inkscape:window-height="768"
     inkscape:window-x="0"
     inkscape:window-y="0"
     inkscape:window-maximized="1"
     inkscape:current-layer="g4" />
  <g
     id="g4">
    <path
       id="path1"
       style="stroke-width:0.5;stroke-dasharray:none;stroke-linejoin:bevel;stroke-linecap:square;paint-order:normal;fill:#00abab;fill-opacity:1"
       d="M 3.0722656 0.25 C 1.5140356 0.25 0.25 1.5140356 0.25 3.0722656 L 0.25 12.927734 C 0.25 14.485934 1.5140356 15.75 3.0722656 15.75 L 12.927734 15.75 C 14.485934 15.75 15.75 14.485934 15.75 12.927734 L 15.75 3.0722656 C 15.75 1.5140356 14.485934 0.25 12.927734 0.25 L 3.0722656 0.25 z M 8.6953125 2 C 8.6892625 2.34732 8.70277 3.0538319 8.71875 3.3574219 C 9.60085 3.7404119 10.161938 4.0034913 10.398438 4.1445312 C 10.740438 3.7958013 11.078731 3.3822419 11.457031 3.0136719 C 11.864531 3.5468419 12.405131 3.8278038 12.644531 4.1835938 C 12.265731 4.4735638 11.809813 4.9366856 11.445312 5.1660156 L 12.191406 6.7871094 C 12.468606 6.7933794 13.2431 6.7880294 13.5 6.7871094 C 13.4891 7.3034894 13.449978 8.14054 13.455078 8.5 C 12.945978 8.49895 12.366356 8.5157131 12.160156 8.5019531 C 11.917756 9.0114431 11.67955 9.4899175 11.40625 10.023438 C 11.32715 10.088537 12.113725 10.584381 12.390625 10.863281 C 12.027425 11.267781 11.510066 11.759406 11.259766 12.003906 C 11.116866 11.865906 10.458703 11.18415 10.283203 11.03125 L 8.7285156 11.623047 C 8.7522556 11.998947 8.8209762 12.581134 8.8476562 12.990234 C 8.4319163 13.035134 7.4232238 12.915034 7.1835938 12.927734 C 7.1512337 12.721134 7.2745288 12.104281 7.2929688 11.675781 L 5.6894531 11.001953 C 5.3554931 11.304053 5.18567 11.656906 4.875 12.066406 C 4.5322 11.865906 3.8222762 11.002662 3.5664062 10.726562 C 3.7066763 10.542063 4.4727288 10.153988 4.5742188 9.9863281 C 4.3055788 9.4753881 4.0362181 8.964075 3.7675781 8.453125 C 3.3997881 8.455055 3.2863331 8.4439137 2.5957031 8.4335938 C 2.4930931 7.8732638 2.4929425 7.0356188 2.5078125 6.8242188 C 2.5092325 6.7353387 3.7270956 6.8310575 3.7285156 6.7421875 L 4.3632812 5.1933594 C 4.5001812 5.0797194 3.8837919 4.7410975 3.4824219 4.2421875 C 3.8786119 3.8133175 4.5285938 3.1774981 4.6835938 3.0488281 C 4.9823438 3.4507481 5.4718531 3.9251675 5.6582031 4.1171875 C 6.0452231 3.9004375 6.8613594 3.4456763 7.2558594 3.2226562 C 7.2287094 2.7757662 7.2838837 2.2970825 7.2773438 2.0390625 C 7.6504237 2.0198625 8.4629925 2.03817 8.6953125 2 z " />
    <path
       style="fill:#00abab;fill-opacity:1;stroke:#ffffff;stroke-width:0.181292;stroke-linecap:square;stroke-linejoin:bevel;stroke-dasharray:none;stroke-opacity:1;paint-order:normal"
       id="path4"
       sodipodi:type="arc"
       sodipodi:cx="7.9812231"
       sodipodi:cy="7.5993209"
       sodipodi:rx="2.5736046"
       sodipodi:ry="2.5736046"
       sodipodi:start="0"
       sodipodi:end="6.2531884"
       sodipodi:open="true"
       sodipodi:arc-type="arc"
       d="M 10.554828,7.5993209 A 2.5736046,2.5736046 0 0 1 8.000523,10.172853 2.5736046,2.5736046 0 0 1 5.407908,7.6379195 2.5736046,2.5736046 0 0 1 7.9233279,5.0263676 2.5736046,2.5736046 0 0 1 10.55367,7.5221323" />
  </g>
  <defs
     id="defs2">
    <clipPath
       id="clip0_8_5">
      <rect
         width="16"
         height="16"
         fill="white"
         id="rect2" />
    </clipPath>
  </defs>
</svg>
